<?xml version="1.0" standalone="no"?>
<!DOCTYPE svg PUBLIC "-//W3C//DTD SVG 20010904//EN"
 "http://www.w3.org/TR/2001/REC-SVG-20010904/DTD/svg10.dtd">
<svg version="1.0" xmlns="http://www.w3.org/2000/svg"
 width="1500.000000pt" height="1125.000000pt" viewBox="0 0 1500.000000 1125.000000"
 preserveAspectRatio="xMidYMid meet">

<g transform="translate(0.000000,1125.000000) scale(0.100000,-0.100000)"
fill="#000000" stroke="none">
<path d="M7123 7746 c-100 -19 -165 -42 -258 -90 -208 -107 -325 -303 -325
-550 l-1 -91 -106 -34 c-386 -124 -685 -388 -807 -713 l-22 -59 -115 -4 c-210
-7 -358 -65 -485 -190 -113 -112 -194 -268 -229 -444 -13 -63 -16 -115 -12
-215 9 -246 59 -354 272 -592 141 -157 255 -190 377 -108 l52 35 60 -23 c72
-27 166 -30 211 -7 19 10 39 13 55 8 14 -4 53 -7 88 -8 50 -1 78 5 132 29 l69
30 81 -60 c45 -33 88 -64 97 -68 13 -8 11 -22 -17 -108 -75 -233 -132 -533
-151 -789 -32 -439 75 -872 269 -1090 236 -265 631 -299 1042 -89 47 23 103
54 125 68 38 23 41 24 59 8 17 -16 89 -17 866 -20 531 -1 857 1 873 7 14 6 33
21 42 35 12 18 61 364 183 1288 l167 1263 65 6 c125 11 130 20 130 246 0 189
-7 228 -53 280 -62 71 -72 73 -444 73 -323 0 -333 1 -333 20 0 22 157 1400
165 1448 l6 32 -283 -2 -282 -3 -87 -735 c-48 -404 -88 -741 -88 -748 -1 -10
-31 -12 -133 -10 l-131 3 -18 85 c-27 129 -82 278 -166 448 l-75 154 37 80
c35 75 37 84 32 149 -4 49 -2 79 9 104 20 48 18 135 -5 194 -18 49 -18 50 1
68 35 32 62 95 62 148 0 79 -34 136 -146 247 -173 170 -275 233 -448 278 -107
28 -302 36 -407 16z m412 -169 c108 -35 180 -81 293 -185 102 -93 152 -154
152 -184 0 -10 -11 -30 -25 -43 -20 -21 -34 -25 -85 -25 -33 0 -60 -2 -60 -6
0 -3 17 -31 39 -62 80 -118 106 -196 76 -225 -9 -10 -23 -17 -31 -17 -18 0
-18 -17 1 -70 25 -70 19 -110 -31 -212 l-45 -94 42 -75 c157 -275 249 -552
249 -749 0 -79 -28 -198 -64 -268 -61 -120 -218 -284 -424 -439 -62 -48 -111
-88 -109 -89 2 -2 61 1 133 6 120 8 221 26 384 64 89 21 166 20 236 -4 89 -31
128 -61 158 -123 94 -190 -21 -439 -256 -555 -129 -64 -216 -84 -402 -89 -221
-7 -386 18 -554 86 l-54 21 21 -28 c64 -90 202 -188 335 -238 l48 -18 -6 -61
c-11 -108 -41 -207 -112 -371 -3 -7 11 -17 33 -24 118 -39 229 -122 275 -207
32 -60 52 -151 43 -203 -16 -92 -151 -248 -306 -352 -358 -239 -710 -281 -938
-113 -109 80 -182 196 -246 388 -47 144 -66 265 -72 467 -10 322 50 681 176
1051 l39 117 -93 57 c-52 32 -127 86 -168 120 l-74 63 -109 -44 c-119 -48
-136 -49 -239 -14 l-51 18 -17 -29 c-13 -24 -23 -29 -54 -29 -48 0 -120 34
-201 94 -34 25 -64 46 -66 46 -2 0 -6 -28 -9 -62 -5 -51 -10 -67 -32 -85 -48
-42 -89 -26 -176 64 -203 210 -254 320 -254 543 1 99 5 141 23 204 52 181 170
343 295 404 101 50 182 65 327 59 69 -2 132 -8 141 -11 13 -6 19 6 34 61 21
83 100 250 149 318 153 211 425 380 734 456 l93 22 -8 56 c-4 31 -7 99 -7 151
4 253 140 411 413 480 114 29 325 23 436 -13z m1495 -517 c0 -16 -31 -310 -70
-652 -38 -342 -70 -626 -70 -630 0 -5 -43 -8 -95 -8 -69 0 -95 3 -95 13 0 22
141 1282 145 1295 3 8 31 12 95 12 l90 0 0 -30z m640 -1590 l0 -110 -731 0
c-692 0 -731 1 -724 18 13 35 35 138 35 170 l0 32 710 0 710 0 0 -110z m-1244
-367 c-11 -109 -9 -106 -69 -81 -42 18 -72 22 -157 22 -95 0 -116 -4 -220 -38
-63 -21 -122 -41 -130 -43 -8 -3 14 15 50 40 36 24 90 72 120 105 l55 61 179
0 178 1 -6 -67z m384 56 c0 -21 -71 -584 -75 -597 -5 -15 -48 4 -102 45 -28
21 -33 30 -33 67 0 23 -5 67 -11 98 -9 44 -7 85 10 220 12 90 21 168 21 171 0
4 43 7 95 7 62 0 95 -4 95 -11z m715 -11 c-2 -13 -18 -126 -35 -253 l-30 -230
-32 -28 c-58 -48 -207 -116 -291 -132 -104 -20 -206 -20 -213 -1 -5 12 50 490
72 629 l6 37 264 0 264 0 -5 -22z m-864 -767 c126 -59 193 -73 344 -73 146 0
241 20 354 72 35 17 65 29 66 28 1 -2 -44 -347 -100 -768 -56 -421 -105 -791
-109 -822 l-7 -58 -741 0 -740 0 65 70 c44 45 79 96 104 147 l38 79 34 -23
c63 -43 151 -20 187 48 26 51 15 123 -25 162 -28 29 -37 32 -91 32 -51 0 -62
-4 -89 -29 -22 -21 -31 -25 -31 -14 0 8 -16 47 -35 85 -41 81 -122 164 -209
213 -65 37 -63 23 -21 160 14 47 31 132 38 190 l12 105 58 3 58 3 -36 -33
c-70 -64 -50 -163 39 -197 33 -13 44 -13 79 0 111 38 112 175 2 224 l-30 13
36 1 c63 2 231 49 314 89 153 74 304 209 336 300 6 18 12 32 14 32 1 0 40 -18
86 -39z"/>
<path d="M7207 7156 c-76 -21 -127 -63 -164 -135 -50 -96 -48 -101 41 -101
152 0 297 -39 398 -108 76 -51 72 -53 64 22 -4 36 -11 78 -16 92 -9 22 -8 25
5 20 8 -3 22 -9 30 -12 19 -8 19 7 1 49 -15 37 -94 113 -133 128 -24 9 -25 10
-8 23 17 12 17 13 -7 19 -58 15 -165 16 -211 3z"/>
<path d="M7394 6211 c-57 -26 -109 -75 -133 -125 -26 -52 -26 -67 -3 -96 28
-35 68 -21 81 28 6 21 27 53 46 72 32 31 44 36 102 40 53 4 68 9 80 27 14 20
13 24 -11 48 -31 31 -100 34 -162 6z"/>
<path d="M7074 5848 c-38 -18 -50 -52 -36 -106 30 -112 184 -378 253 -436 17
-14 42 -26 55 -26 62 0 213 112 266 197 43 70 6 164 -96 242 -61 47 -171 103
-245 125 -61 18 -165 20 -197 4z"/>
<path d="M6773 5719 c-75 -37 -132 -126 -133 -206 0 -47 26 -75 61 -66 26 7
32 18 34 64 4 69 76 139 143 139 33 0 52 16 52 45 0 12 -5 26 -12 33 -19 19
-99 14 -145 -9z"/>
<path d="M5714 5706 c-68 -32 -117 -77 -145 -134 -19 -38 -23 -64 -23 -142 -1
-52 3 -113 7 -135 8 -35 10 -38 22 -22 16 23 22 22 29 -6 14 -58 134 -157 189
-157 16 0 16 2 2 30 l-15 29 62 -5 c79 -8 132 5 136 32 2 11 -17 45 -44 79
-93 120 -138 239 -139 367 0 101 -1 101 -81 64z"/>
<path d="M8312 4100 c-61 -37 -69 -105 -18 -156 28 -28 42 -34 76 -34 58 0
100 41 100 100 0 54 -14 79 -55 96 -46 19 -64 18 -103 -6z"/>
<path d="M8972 3985 c-39 -32 -48 -74 -27 -114 34 -67 121 -77 169 -20 80 95
-47 214 -142 134z"/>
<path d="M8510 3821 c-51 -27 -84 -90 -77 -148 9 -82 68 -137 147 -137 57 0
91 20 128 75 19 28 23 44 20 85 -10 116 -118 178 -218 125z"/>
<path d="M8043 3765 c-33 -14 -57 -63 -46 -93 22 -63 94 -82 138 -37 65 65 -7
166 -92 130z"/>
<path d="M9050 3673 c-8 -3 -27 -17 -42 -31 -40 -37 -40 -102 1 -143 67 -67
181 -18 181 78 0 65 -78 118 -140 96z"/>
<path d="M8224 3524 c-68 -23 -95 -76 -75 -145 29 -95 180 -108 226 -19 51 98
-43 201 -151 164z"/>
<path d="M8695 3360 c-36 -23 -65 -74 -65 -113 0 -40 33 -99 68 -119 65 -38
148 -13 183 54 10 21 19 49 19 63 0 39 -34 98 -68 118 -40 23 -100 22 -137 -3z"/>
<path d="M9035 3225 c-38 -37 -37 -88 1 -122 67 -61 161 14 128 102 -8 19 -55
45 -84 45 -11 0 -32 -11 -45 -25z"/>
<path d="M8434 3146 c-43 -19 -64 -53 -64 -101 0 -50 22 -83 67 -102 70 -29
143 23 143 101 0 50 -21 83 -66 102 -40 17 -41 17 -80 0z"/>
</g>
</svg>
